<svg xmlns="http://www.w3.org/2000/svg" enable-background="new 0 0 5000 5000" viewBox="0 0 5000 5000" id="join-to-life-insurance-agent"><g><g><g><g><g><g><g><linearGradient id="a" x1="3145.019" x2="3145.019" y1="3300.198" y2="2794.976" gradientUnits="userSpaceOnUse"><stop offset="0" stop-color="#bddcfd"></stop><stop offset="1" stop-color="#59c4f6"></stop></linearGradient><path fill="url(#a)" d="M3463.472,3480.728c38.108,41.664,76.332,83.281,114.559,124.938h-461.567
								c15.449-33.246,31.253-66.494,45.829-100.509c9.498-22.434,17.451-45.284,24.309-68.711c0.316,0.115,0.429,0.228,0.767,0.115
								c51.678-4.413,103.496-8.934,155.062-13.588c6.858-0.551,5.199-10.815-1.539-10.156c-50.361,4.406-100.738,8.84-151.1,13.139
								c13.481-47.723,23.093-96.64,33.133-145.028c4.863-22.971,9.184-45.815,13.704-68.906
								c27.392-7.167,54.552-14.36,81.83-21.648c13.594-3.66,27.954-6.649,32.817-21.306c2.103-6.422-7.617-10.06-9.732-3.66
								c-5.174,15.469-44.499,19.875-58.416,23.635c-14.811,3.868-29.485,7.96-44.081,11.714
								c11.376-57.991,22.44-116.32,32.59-174.715c1.106-6.542-9.156-7.529-10.265-0.9
								c-14.924,85.154-31.051,170.074-48.715,254.711c-1.089,4.971-2.109,9.699-3.099,14.563
								c-27.276-42.86-49.596-87.801-67.147-135.638c-2.31-6.286-11.807-1.961-9.389,4.191
								c18.565,51.156,42.86,99.085,72.689,144.477c0.314,0.538,0.658,0.672,0.886,0.995
								c-14.815,70.565-30.38,141.036-60.209,207.076c-2.761,5.749-5.313,11.484-7.939,17.234
								c-39.218-45.162-76.107-92.234-110.234-141.266c-3.87-5.386-11.942,1.223-8.072,6.515
								c35.008,50.16,72.581,98.198,112.785,144.155c0.21,0.321,0.666,0.551,0.889,0.778c-9.728,20.983-19.451,41.832-29.063,62.733
								h-416.258c-0.683-3.888-0.998-7.736-0.998-11.713c0-34.565,25.28-64.186,53.445-84.269
								c28.062-20.11,60.408-34.248,86.263-57.112c9.381-8.389,18.222-18.438,20.982-30.595
								c5.742-25.181-14.475-47.823-27.278-70.122c-39.332-68.483-11.056-154.511,18.115-227.857
								c7.939-20.427,17.666-42.639,37.433-52.021c28.835-13.595,61.31,6.857,87.46,25.167
								c26.187,18.236,62.195,35.243,87.819,16.241c25.396-18.767,19.653-59.207,2.876-85.948
								c-19.001-30.346-47.951-53.411-67.039-83.582c-19.224-30.151-25.962-74.099-0.336-99.18
								c30.487-29.607,80.626-13.043,119.826,3.641c39.238,16.698,92.568,28.157,117.421-6.288
								c14.247-19.559,12.037-47.271,1.201-68.819c-10.929-21.642-28.813-38.541-45.94-55.548
								c-9.385-9.388-19.217-20.109-20.325-33.354c-1.089-12.037,5.515-23.642,13.051-33.248
								c42.945-54.103,127.759-69.255,186.853-33.248c58.992,36.109,84.389,118.396,55.801,181.473
								c-10.84,23.844-27.416,54.668-8.188,72.554c24.966,23.656,61.397-16.241,95.639-19.088
								c28.844-2.446,53.561,24.945,57.428,53.559c3.758,28.7-8.615,56.998-24.064,81.393
								c-29.721,46.938-71.352,84.819-109.355,125.368c-6.057,6.516-12.357,13.48-13.902,22.3
								c-2.875,14.567,7.965,28.271,19.987,37.003c27.056,19.545,61.64,24.408,93.437,34.335
								c32.047,9.947,65.18,28.949,74.229,61.089c9.611,34.665-13.482,70.813-42.316,92.341
								c-28.928,21.528-63.828,33.678-93.55,54.237c-8.61,5.946-17.344,13.341-19.97,23.522
								C3440.606,3453.794,3452.44,3468.806,3463.472,3480.728z"></path></g></g><g><g><linearGradient id="b" x1="5635.62" x2="5635.62" y1="3300.198" y2="2794.976" gradientTransform="matrix(-1 0 0 1 7454.191 0)" gradientUnits="userSpaceOnUse"><stop offset="0" stop-color="#bddcfd"></stop><stop offset="1" stop-color="#59c4f6"></stop></linearGradient><path fill="url(#b)" d="M1500.112,3480.728c-38.111,41.664-76.335,83.281-114.532,124.938h461.538
								c-15.44-33.246-31.253-66.494-45.813-100.509c-9.504-22.434-17.463-45.284-24.314-68.711
								c-0.315,0.115-0.438,0.228-0.773,0.115c-51.678-4.413-103.491-8.934-155.054-13.588c-6.858-0.551-5.207-10.815,1.537-10.156
								c50.362,4.406,100.73,8.84,151.099,13.139c-13.474-47.723-23.09-96.64-33.133-145.028
								c-4.863-22.971-9.156-45.815-13.709-68.906c-27.384-7.167-54.554-14.36-81.822-21.648
								c-13.597-3.66-27.957-6.649-32.817-21.306c-2.103-6.422,7.616-10.06,9.724-3.66c5.179,15.469,44.504,19.875,58.421,23.635
								c14.811,3.868,29.488,7.96,44.076,11.714c-11.371-57.991-22.435-116.32-32.59-174.715c-1.109-6.542,9.181-7.529,10.27-0.9
								c14.926,85.154,31.05,170.074,48.717,254.711c1.086,4.971,2.103,9.699,3.096,14.563
								c27.276-42.86,49.604-87.801,67.147-135.638c2.311-6.286,11.807-1.961,9.389,4.191
								c-18.57,51.156-42.865,99.085-72.669,144.477c-0.34,0.538-0.678,0.672-0.906,0.995
								c14.818,70.565,30.375,141.036,60.208,207.076c2.756,5.749,5.313,11.484,7.939,17.234
								c39.213-45.162,76.101-92.234,110.234-141.266c3.862-5.386,11.942,1.223,8.075,6.515
								c-35.016,50.16-72.554,98.198-112.795,144.155c-0.195,0.321-0.631,0.551-0.879,0.778
								c9.752,20.983,19.451,41.832,29.063,62.733h416.264c0.678-3.888,0.993-7.736,0.993-11.713
								c0-34.565-25.288-64.186-53.445-84.269c-28.042-20.11-60.403-34.248-86.258-57.112c-9.389-8.389-18.228-18.438-20.995-30.595
								c-5.737-25.181,14.48-47.823,27.283-70.122c39.325-68.483,11.056-154.511-18.122-227.857
								c-7.933-20.427-17.657-42.639-37.426-52.021c-28.835-13.595-61.317,6.857-87.464,25.167
								c-26.182,18.236-62.199,35.243-87.814,16.241c-25.404-18.767-19.654-59.207-2.877-85.948
								c19.004-30.346,47.946-53.411,67.042-83.582c19.216-30.151,25.96-74.099,0.336-99.18
								c-30.487-29.607-80.629-13.043-119.826,3.641c-39.213,16.698-92.57,28.157-117.429-6.288
								c-14.247-19.559-12.024-47.271-1.196-68.819c10.921-21.642,28.815-38.541,45.936-55.548
								c9.384-9.388,19.229-20.109,20.333-33.354c1.086-12.037-5.521-23.642-13.051-33.248
								c-42.948-54.103-127.761-69.255-186.86-33.248c-58.979,36.109-84.383,118.396-55.769,181.473
								c10.806,23.844,27.384,54.668,8.168,72.554c-24.953,23.656-61.413-16.241-95.654-19.088
								c-28.835-2.446-53.558,24.945-57.42,53.559c-3.763,28.7,8.618,56.998,24.059,81.393
								c29.721,46.938,71.357,84.819,109.353,125.368c6.067,6.516,12.373,13.48,13.912,22.3
								c2.874,14.567-7.967,28.271-19.989,37.003c-27.056,19.545-61.633,24.408-93.429,34.335
								c-32.027,9.947-65.188,28.949-74.233,61.089c-9.611,34.665,13.479,70.813,42.314,92.341
								c28.923,21.528,63.823,33.678,93.544,54.237c8.618,5.946,17.349,13.341,19.969,23.522
								C1522.975,3453.794,1511.147,3468.806,1500.112,3480.728z"></path></g></g><linearGradient id="c" x1="3135.375" x2="2258.794" y1="3228.515" y2="3228.515" gradientUnits="userSpaceOnUse"><stop offset="0" stop-color="#bddcfd"></stop><stop offset="1" stop-color="#59c4f6"></stop></linearGradient><path fill="url(#c)" d="M3661.936,3605.666H1168.327c26.35-113.988,120.752-209.346,248.759-258.781
						c47.38-18.524,99.536-30.695,154.405-35.148c33.906-90.965,92.636-173.473,170.053-242.855
						c149.004-133.396,367.325-217.516,610.632-217.516c334.937,0,622.417,159.522,747.233,387.521
						c15.813-1.283,31.757-2.236,47.932-2.236c235.865,0,426.916,150.764,426.916,336.581c0,1.861,0,3.431-0.23,5.071
						C3605.662,3583.502,3635.231,3592.958,3661.936,3605.666z" opacity=".5"></path><linearGradient id="d" x1="1893.552" x2="3831.673" y1="3312.528" y2="3312.528" gradientUnits="userSpaceOnUse"><stop offset="0" stop-color="#bddcfd"></stop><stop offset="1" stop-color="#59c4f6"></stop></linearGradient><path fill="url(#d)" d="M1893.552,3605.666h1938.121c-20.484-88.593-93.837-162.705-193.354-201.151
						c-36.814-14.388-77.342-23.844-120.001-27.297c-26.343-70.7-71.991-134.818-132.171-188.767
						c-115.797-103.692-285.494-169.06-474.609-169.06c-260.308,0-483.772,123.99-580.775,301.211
						c-12.285-1.014-24.678-1.74-37.251-1.74c-183.313,0-331.792,117.153-331.792,261.603c0,1.424,0,2.646,0.16,3.922
						C1937.298,3588.431,1914.319,3595.806,1893.552,3605.666z" opacity=".7"></path><g><path fill="#fff" d="M2509.205,3056.641c0,0-28.089-87.236-105.89-54.868l-0.047-0.02l-0.651,0.316
							c-3.128,1.309-6.268,2.733-9.524,4.427c0,0,0.699,1.854,2.19,4.848l0.228,0.498h0.021
							C2404.149,3028.941,2436.724,3080.029,2509.205,3056.641z"></path><path fill="#fff" d="M2922.188,3498.548l-1.229-0.174l-0.061,0.04c-65.742-6.965-92.979,33.477-104.197,66.832
							c-2.195-27.472-7.642-54.5-18.207-80.305c-2.713-6.609-5.697-12.936-8.841-19.184
							c94.901-20.902,87.917-113.484,87.917-113.484c-4.308-0.19-8.397-0.148-12.352,0h-1.452l-0.067,0.08
							c-69.162,3.218-85.402,54.379-88.566,87.667c-33.945-53.646-82.777-95.579-128.895-139.843
							c63.803-42.652,33.309-110.121,33.309-110.121c-3.5,1.135-6.756,2.358-9.852,3.621l-0.679,0.228l-0.021,0.066
							c-47.16,19.654-50.304,57.308-45.4,83.933c-0.04-0.047-0.092-0.094-0.133-0.134c-26.396-26.78-48.373-56.232-65.179-87.801
							c64.405-22.623,63.507-78.955,61.404-97.165l0.021-0.026l-0.107-0.833c-0.411-3.117-0.794-4.929-0.794-4.929
							c-3.619,0.362-6.991,0.859-10.25,1.47l-0.878,0.115l-0.028,0.066c-51.881,9.888-61.604,48.24-61.58,75.524
							c-14.998-35.155-23.729-72.702-24.993-112.155c77.801,12.411,100.482-59.538,100.482-59.538
							c-3.547-1.598-6.938-2.888-10.289-4.043l-0.221-0.095l0,0c-47.796-16.55-75.114,8.732-89.314,31.663
							c0.203-2.801,0.291-5.589,0.566-8.409c2.705-28.882,8.475-57.16,16.239-84.9c65.2-2.806,79.064-54.351,81.851-71.412
							c0.015,0,0.015,0,0.015,0l0.072-0.423c0.498-3.15,0.586-5.017,0.586-5.017c-3.212-0.565-6.268-0.954-9.249-1.269l-1.108-0.142
							l-0.067,0.054c-22.5-2.001-38.58,3.641-50.047,12.722c7.657-19.788,15.984-39.347,24.718-58.704
							c58.059,26.208,93.585-12.413,103.854-26.102c0,0,0.027,0,0.027,0.021l0.221-0.336c1.922-2.559,2.868-4.184,2.868-4.184
							c-2.601-2.042-5.171-3.802-7.712-5.474l-0.791-0.564l-0.088,0.02c-37.178-23.912-66.085-10.452-84.268,5.903
							c5.092-10.853,10.223-21.648,15.334-32.408c1.176-2.444,0.631-4.755-0.618-6.556c64.869-3.034,78.626-54.377,81.427-71.384
							l0,0l0.047-0.363c0.519-3.184,0.631-5.092,0.631-5.092c-3.211-0.564-6.265-0.948-9.229-1.237l-1.129-0.188l-0.088,0.094
							c-69.369-6.153-77.557,60.431-78.503,75.362c-1.224,0.363-2.351,1.223-3.124,2.821c-9.706,20.427-19.479,40.959-28.883,61.701
							c-2.578-16.598-16.897-79.244-84.039-67.893l-0.065-0.047l-0.954,0.209c-3.011,0.537-6.087,1.169-9.296,2.029
							c0,0,10.546,75.408,92.528,69.8c-16.516,36.66-31.742,73.95-43.296,112.317c-4.042-20.789-20.715-74.53-83.361-63.917
							l-0.067-0.047l-0.946,0.181c-3.009,0.538-6.065,1.175-9.276,2.043c0,0,10.473,74.628,91.281,69.88
							c-5.494,19.263-10.09,38.782-13.374,58.643c-3.909,23.677-5.649,47.024-5.267,69.908c-0.335,1.135-0.516,1.806-0.516,1.806
							c0.2,0.068,0.383,0.096,0.584,0.142c0.905,40.053,8.59,78.754,23.476,115.777c-20.803-16.576-53.735-30.017-92.57-0.43h-0.067
							l-0.699,0.591c-2.625,2.029-5.271,4.205-7.932,6.649c0,0,1.281,1.76,3.707,4.474l0.04,0.041l0,0
							c12.077,13.634,52.902,51.301,111.974,19.772c6.516,12.326,13.797,24.47,22.053,36.365
							c9.432,13.528,19.861,26.21,30.822,38.407c-20.908-14.703-51.738-24.113-87.659,3.258h-0.067l-0.706,0.584
							c-2.611,2.035-5.244,4.191-7.905,6.61c0,0,1.265,1.76,3.683,4.501l0.064,0.066l0,0
							c12.735,14.334,57.112,55.184,120.983,14.541c0.993,0.975,2.007,1.929,3.008,2.869c1.129,2.625,1.875,4.123,1.875,4.123
							c0.543-0.275,0.994-0.551,1.517-0.82c24.813,23.905,50.725,46.816,74.792,71.386c-15.945-5.615-35.627-6.428-59.686,1.129
							l-0.093-0.054l-0.974,0.342c-3.89,1.242-7.867,2.646-11.984,4.346c0,0,27.41,97.768,135.066,74.205
							c0.906,1.626,1.902,3.252,2.762,4.883c0.202,3.258,0.43,5.112,0.43,5.112c0.651-0.094,1.242-0.201,1.881-0.295
							c15.844,32.053,23.676,65.838,26.369,100.469c-12.082-33.362-40.797-75.268-108.159-65.073l-0.088-0.066l-1.269,0.248
							c-4.246,0.679-8.618,1.492-13.159,2.619c0,0,0.338,2.762,1.377,7.382l0.022,0.136h0.025
							c5.381,23.563,29.293,94.49,120.842,92.704c4.901-3.278,10.988-2.97,16.125-0.297c90.463-2.981,111.027-74.313,115.32-98.023
							v-0.04c0.858-4.701,1.089-7.509,1.089-7.509C2930.866,3499.663,2926.462,3499.044,2922.188,3498.548z"></path></g><g><path fill="#fff" d="M2257.024,3197.882c0,0,20.879-64.857,78.689-40.798h0.045l0.498,0.229
							c2.311,0.967,4.636,2.028,7.053,3.305c0,0-0.518,1.369-1.599,3.587l-0.183,0.39h-0.025
							C2335.101,3177.302,2310.881,3215.25,2257.024,3197.882z"></path><path fill="#fff" d="M1950.118,3526.274l0.908-0.134l0.041,0.054c48.856-5.185,69.121,24.851,77.441,49.663
							c1.627-20.445,5.677-40.528,13.549-59.711c1.995-4.883,4.226-9.612,6.563-14.253c-70.526-15.509-65.343-84.308-65.343-84.308
							c3.204-0.135,6.235-0.121,9.177,0h1.068l0.066,0.04c51.383,2.404,63.46,40.394,65.817,65.165
							c25.235-39.871,61.513-71.036,95.782-103.921c-47.408-31.717-24.745-81.836-24.745-81.836c2.598,0.819,4.996,1.72,7.329,2.673
							l0.495,0.174l0.021,0.053c35.035,14.603,37.365,42.585,33.726,62.372c0.045-0.041,0.065-0.087,0.093-0.108
							c19.606-19.909,35.954-41.778,48.441-65.247c-47.855-16.804-47.197-58.677-45.613-72.204c-0.027-0.02-0.027-0.02-0.027-0.02
							l0.096-0.611c0.295-2.324,0.583-3.681,0.583-3.681c2.673,0.268,5.179,0.658,7.624,1.102l0.631,0.094l0.027,0.04
							c38.56,7.361,45.769,35.854,45.769,56.139c11.136-26.143,17.624-54.057,18.57-83.368
							c-57.831,9.229-74.677-44.236-74.677-44.236c2.621-1.169,5.151-2.169,7.645-3.028l0.152-0.048h0.028
							c35.505-12.306,55.815,6.476,66.355,23.523c-0.143-2.083-0.21-4.165-0.41-6.24c-2.027-21.46-6.308-42.471-12.077-63.104
							c-48.441-2.082-58.757-40.394-60.84-53.063l0,0l-0.04-0.309c-0.362-2.351-0.458-3.734-0.458-3.734
							c2.398-0.431,4.661-0.698,6.879-0.928l0.833-0.134l0.028,0.04c16.737-1.464,28.699,2.713,37.223,9.458
							c-5.697-14.703-11.89-29.218-18.362-43.606c-43.15,19.451-69.573-9.255-77.189-19.405c-0.021,0-0.021,0-0.021,0l-0.162-0.221
							c-1.424-1.934-2.147-3.13-2.147-3.13c1.939-1.49,3.847-2.821,5.714-4.07l0.619-0.403h0.047
							c27.631-17.76,49.12-7.759,62.627,4.387c-3.782-8.054-7.585-16.101-11.379-24.087c-0.879-1.806-0.477-3.526,0.45-4.862
							c-48.199-2.264-58.437-40.402-60.496-53.056h-0.021l-0.027-0.255c-0.383-2.378-0.479-3.774-0.479-3.774
							c2.379-0.457,4.664-0.727,6.859-0.954l0.86-0.107l0.04,0.04c51.57-4.566,57.628,44.922,58.354,56.005
							c0.901,0.295,1.76,0.926,2.326,2.102c7.219,15.172,14.479,30.44,21.438,45.868c1.927-12.347,12.58-58.899,62.471-50.456
							l0.048-0.026l0.698,0.134c2.245,0.409,4.528,0.886,6.919,1.518c0,0-7.817,56.018-68.752,51.859
							c12.258,27.25,23.568,54.964,32.159,83.482c3.009-15.448,15.409-55.393,61.948-47.527l0.047-0.014l0.727,0.148
							c2.215,0.416,4.5,0.865,6.876,1.504c0,0-7.784,55.454-67.83,51.921c4.09,14.32,7.514,28.813,9.927,43.591
							c2.894,17.611,4.21,34.941,3.915,51.947c0.271,0.859,0.403,1.358,0.403,1.358c-0.161,0.04-0.296,0.066-0.451,0.094
							c-0.678,29.755-6.4,58.529-17.437,86.027c15.47-12.325,39.919-22.3,68.774-0.315h0.053l0.538,0.449
							c1.947,1.492,3.909,3.124,5.884,4.932c0,0-0.953,1.315-2.74,3.344l-0.027,0.028c0,0,0,0-0.013,0
							c-8.988,10.129-39.308,38.11-83.206,14.683c-4.844,9.176-10.25,18.175-16.403,27.001
							c-7.006,10.089-14.743,19.492-22.885,28.559c15.536-10.922,38.446-17.927,65.132,2.432h0.047l0.519,0.43
							c1.947,1.512,3.888,3.116,5.882,4.93c0,0-0.926,1.283-2.738,3.319l-0.042,0.066l0,0c-9.457,10.652-42.43,41.006-89.923,10.786
							c-0.726,0.727-1.472,1.452-2.217,2.177c-0.839,1.948-1.41,3.022-1.41,3.022c-0.375-0.174-0.713-0.403-1.101-0.604
							c-18.458,17.759-37.709,34.805-55.596,53.063c11.854-4.164,26.465-4.776,44.352,0.833l0.067-0.04l0.724,0.269
							c2.896,0.927,5.837,1.948,8.913,3.211c0,0-20.377,72.667-100.375,55.137c-0.678,1.229-1.422,2.425-2.06,3.661
							c-0.136,2.404-0.311,3.788-0.311,3.788c-0.476-0.067-0.926-0.161-1.404-0.229c-11.786,23.811-17.597,48.938-19.591,74.649
							c8.985-24.785,30.332-55.923,80.385-48.346l0.048-0.047l0.946,0.182c3.172,0.496,6.4,1.129,9.792,1.947
							c0,0-0.268,2.076-1.041,5.468l-0.021,0.134c0,0,0-0.027,0,0c-4.002,17.504-21.781,70.203-89.814,68.874
							c-3.642-2.426-8.16-2.197-11.982-0.202c-67.241-2.224-82.508-55.238-85.691-72.836v-0.04
							c-0.634-3.479-0.794-5.615-0.794-5.615C1943.65,3527.094,1946.929,3526.637,1950.118,3526.274z"></path></g></g></g><g><path fill="#fff" d="M2508.997,1335.865c-287.771,0-556.501,109.624-756.658,308.52
					c-200.044,198.841-310.038,465.676-309.943,751.332c0.32,581.882,470.989,1055.654,1049.217,1056.177h0.969
					c586.813,0,1064.546-474.213,1065.001-1057.044c0.566-582.789-468.934-1057.828-1046.431-1058.984H2508.997z"></path><path fill="#37aefd" d="M2500.366,1619.318c-236.623,272.403-500.537,279.093-511.929,279.322h-114.38
					c-20.896,0-37.929,17.006-37.929,37.909v41.973c-10.813,250.03,18.027,469.478,88.165,671.625
					c62.283,179.444,152.637,317.271,276.401,421.266c85.213,71.714,183.781,123.218,293.157,152.961
					c1.899,0.563,4.09,0.899,6.515,1.059c2.479-0.16,4.674-0.497,6.394-0.993c109.45-29.81,208.146-81.246,293.34-152.981
					c123.696-104.042,214.068-241.869,276.38-421.313c70.135-202.146,98.963-421.595,88.178-670.765l-0.041-42.833
					c0-20.903-17.008-37.909-37.903-37.909h-114.129C3000.917,1898.41,2736.963,1891.721,2500.366,1619.318z"></path><path fill="#5590eb" d="M3104.864,1898.639c-61.29,433.927-434.175,767.586-884.927,767.586
					c-108.383,0-212.262-19.236-308.379-54.566c-60.839-191.454-85.584-398.873-75.382-633.138v-41.973
					c0-20.923,16.985-37.909,37.881-37.909h114.38c11.392-0.175,275.266-6.966,511.97-279.322
					c236.556,272.356,500.463,279.146,512.129,279.322H3104.864z" opacity=".3"></path><path fill="#fff" d="M2858.321,2374.002c-0.203-41.665-22.69-66.879-63.513-71.111
					c-36.728-3.707-40.569-28.654-40.282-47.138c0.611-32.751,0.611-68.067,0-108.239c-1.416-100.06-78.203-176.052-178.63-176.818
					c-51.358-0.269-102.9-0.175-154.243,0.766c-88.633,1.612-159.307,62.539-171.707,148.238
					c-4.796,32.293-4.513,65.198-4.11,99.958c0.108,13.527,0.176,27.008,0,40.582c-0.208,10.673-0.686,39.118-36.8,43.243
					c-46.634,5.292-66.651,28.223-66.786,76.529c-0.268,123.24-0.268,246.571,0,369.763c0.23,53.781,25.759,78.955,80.493,78.955
					l111.23,0.068h186.24v0.678l150.903,0.208c37.681,0,75.593-0.094,113.401-0.321c46.707-0.155,73.479-27.271,73.707-74.18
					C2858.816,2627.256,2858.816,2499.046,2858.321,2374.002z M2578.933,2498.16c-1.855,19.451-11.494,37.009-27.19,49.354
					c-28.197,22.326-31.046,47.809-30.137,69.706c0.806,16.148,0.563,32.838,0.396,48.917c-0.08,7.261-0.08,14.543-0.08,21.89
					c0,8.216,0,16.786-0.619,21.426c-4.7,0.719-13.701,1.035-22.479,1.424c-6.671,0.316-12.345,0.517-16.961,0.517
					c-1.88,0-3.364,0-4.433-0.088c-0.498-5.023-0.498-13.526-0.498-21.917l-0.228-13.547c0-10.587-0.067-21.198,0.228-31.663
					c0.881-31.938,1.97-71.473-38.264-106.071c-16.623-14.024-20.13-32.415-20.245-45.149c-0.2-23.159,10.565-46.493,28.97-62.654
					c14.434-12.614,32.886-19.694,51.858-19.694c22.503,0,44.129,10.022,59.263,27.163
					C2573.464,2454.971,2580.899,2476.948,2578.933,2498.16z M2626.042,2263.357c-18.134-0.403-36.392-0.497-54.687-0.497
					l-71.56,0.181l-18.337,0.974l-54.89-0.162c-17.76,0-35.646,0.068-54.512,0.545c-1.332,0-2.305-0.068-3.191-0.068
					c-0.088-1.289-0.228-3.056-0.228-5.379c0.503-18.008,0.388-35.788,0.228-53.587c-0.088-18.363-0.228-36.861,0.371-55.265
					c0.791-32.052,22.292-54.151,53.39-54.916c51.753-1.27,104.197-0.888,156.19,1.356c29.091,1.169,49.396,22.098,50.576,51.947
					c0.786,20.331,0.586,41.32,0.491,61.539c-0.107,16.624-0.315,33.18,0.095,49.757v3.44c-0.976,0-2.15,0.134-3.709,0.134
					C2626.271,2263.357,2626.178,2263.357,2626.042,2263.357z"></path><g><g><path fill="#37aefd" d="M2492.918,3554.916h-1.082c-635.167-0.551-1152.232-520.6-1152.57-1159.253
							c-0.065-313.194,120.795-605.989,340.513-824.464c219.588-218.216,513.902-338.352,828.844-338.352h2.397
							c634.434,1.263,1150.171,522.585,1149.72,1162.097c-0.295,311.434-121.613,603.18-341.517,821.576
							C3099.438,3434.726,2805.984,3554.916,2492.918,3554.916z M2508.622,1381.482c-275.387,0-532.537,104.922-724.036,295.223
							c-191.448,190.245-296.684,445.574-296.597,718.958c0.296,556.736,450.732,1010.115,1003.96,1010.584h0.969
							c561.489,0,1018.589-453.755,1019.072-1011.397c0.519-557.661-448.675-1012.239-1001.273-1013.368H2508.622z"></path><linearGradient id="e" x1="2500.368" x2="2500.368" y1="3617.32" y2="1124.13" gradientUnits="userSpaceOnUse"><stop offset=".046" stop-color="#262262"></stop><stop offset=".15" stop-color="#203777"></stop><stop offset=".432" stop-color="#136aaa"></stop><stop offset=".678" stop-color="#088fd0"></stop><stop offset=".875" stop-color="#02a6e7"></stop><stop offset="1" stop-color="#00aeef"></stop></linearGradient><path fill="url(#e)" d="M2500.366,3264.242l-0.59-0.04c-6-0.201-11.399-0.993-16.378-2.31
							c-114.572-31.348-218.251-85.451-307.766-160.759c-129.142-108.677-223.452-251.997-288.006-438.178
							c-71.782-206.949-101.341-431.06-90.353-685.247v-41.16c0-42.383,34.402-76.813,76.783-76.813h114.152
							c2.438-0.04,268.95-7.597,497.206-282.707l14.95-18.115l14.971,18.115c228.995,275.882,494.781,282.667,497.455,282.707
							h113.921c42.364,0,76.759,34.43,76.759,76.813v41.973c10.948,253.375-18.545,477.485-90.266,684.434
							c-64.681,186.181-158.855,329.502-288.174,438.178c-89.547,75.308-193.112,129.411-307.82,160.759
							c-4.843,1.316-10.202,2.108-16.215,2.31L2500.366,3264.242z M2500.366,1619.318
							c-236.623,272.403-500.537,279.093-511.929,279.322h-114.38c-20.896,0-37.929,17.006-37.929,37.909v41.973
							c-10.813,250.03,18.027,469.478,88.165,671.625c62.283,179.444,152.637,317.271,276.401,421.266
							c85.213,71.714,183.781,123.218,293.157,152.961c1.899,0.563,4.09,0.899,6.515,1.059c2.479-0.16,4.674-0.497,6.394-0.993
							c109.45-29.81,208.146-81.246,293.34-152.981c123.696-104.042,214.068-241.869,276.38-421.313
							c70.135-202.146,98.963-421.595,88.178-670.765l-0.041-42.833c0-20.903-17.008-37.909-37.903-37.909h-114.129
							C3000.917,1898.41,2736.963,1891.721,2500.366,1619.318z"></path></g></g><path fill="#5590eb" d="M3104.864,1898.639c-61.29,433.927-434.175,767.586-884.927,767.586
					c-108.383,0-212.262-19.236-308.379-54.566c-60.839-191.454-85.584-398.873-75.382-633.138v-41.973
					c0-20.923,16.985-37.909,37.881-37.909h114.38c11.392-0.175,275.266-6.966,511.97-279.322
					c236.556,272.356,500.463,279.146,512.129,279.322H3104.864z" opacity=".3"></path></g></g><g><g><linearGradient id="f" x1="6587.916" x2="6608.452" y1="1275.793" y2="1410.212" gradientTransform="scale(-1 1) rotate(31.177 -446.276 -13112.195)" gradientUnits="userSpaceOnUse"><stop offset="0" stop-color="#e9c433"></stop><stop offset="1" stop-color="#f9ed32"></stop></linearGradient><path fill="url(#f)" d="M1897.131,2750.104c0,0,9.968,163.169,15.106,176.798
					c5.227,13.54,80.493,98.171,80.493,98.171l-24.107,31.945c0,0-81.715-57.906-102.119-102.861
					c-20.353-45.014-62.198-245.55-30.846-263.188c31.389-17.671,60.479,57.468,60.479,57.468L1897.131,2750.104z"></path><g><path fill="#e8e3ca" d="M2042.533,3054.359c4.815,1.731,13.366,3.318,21.414-2.781c2.33-1.801,1.049-5.414-1.88-5.757
						c-4.769-0.409-8.881-7.462-21.099-5.655c-24.064,3.58-44.687-4.305-44.687-4.305l-13.91,20.727
						c0,0,10.263,26.881,23.046,35.451c12.103,8.047,38.647,33.664,69.593,19.317c3.229-1.519,4.48-5.561,2.646-8.577
						c-5.515-9.343-17.416-28.171-27.526-36.412c-5.063-4.184-7.979-7.146-9.564-9.201
						C2039.478,3055.748,2040.882,3053.835,2042.533,3054.359z"></path><polygon fill="#2b3990" points="1992.73 3025.073 1999.313 3035.525 1981.762 3058.885 1968.623 3057.018"></polygon></g></g><g><g><path fill="#ffc4bd" d="M2797.817,2721.276c0,0-40.35,121.21-53.789,155.828
						c-17.504,45.176-68.523,97.325-77.161,96.962c-20.99-0.954-33.476,0.202-31.708,8.209c1.488,6.783,26.777,7.441,26.777,7.441
						s-21.259,27.573-20.693,62.977c0,0,10.49,13.231,27.659,12.93c8.981-0.169,17.619-6.086,23.046-23.798
						c19.586-64.037,61.087-84.651,89.922-129.404c19.163-29.741,67.718-164.513,67.718-164.513L2797.817,2721.276z"></path><polygon fill="#113a5a" points="2822.151 2639.257 2776.108 2761.509 2830.89 2788"></polygon><path fill="#18445f" d="M2818.154,2758.245c0,0-14.072,3.545-24.811,3.768c-10.775,0.235-32.39-11.634-32.39-11.634
						l0.927,20.131c0,0-6.038,14.172,0.793,15.092c6.823,0.926,56.81,12.742,56.81,12.742s20.83-35.478,15.041-36.458
						c-5.817-0.982-8.726,1.813-8.726,1.813L2818.154,2758.245z"></path><g><polygon fill="#ffc4bd" points="2979.133 3638.712 2974.95 3684.333 2934.514 3684.333 2937.314 3630.774"></polygon><path fill="#343736" d="M2912.875,3703.152l19.691-30.587h51.295c0,0,3.757,22.581-5.177,37.868
							c-8.913,15.288-30.582,14.791-30.582,14.791L2912.875,3703.152z"></path><path fill="#404443" d="M2948.103,3725.224c0,0-0.946-29.567-35.228-29.567c-34.357,0-28.688,29.567-28.688,29.567
							H2948.103z"></path></g><g><polygon fill="#ffc4bd" points="2803.901 3638.712 2799.649 3684.333 2759.194 3684.333 2762.016 3630.774"></polygon><path fill="#343736" d="M2737.541,3703.152l19.767-30.587h51.282c0,0,3.747,22.581-5.206,37.868
							c-8.894,15.288-30.555,14.791-30.555,14.791L2737.541,3703.152z"></path><path fill="#404443" d="M2772.829,3725.224c0,0-0.979-29.567-35.288-29.567c-34.329,0-28.7,29.567-28.7,29.567
							H2772.829z"></path><path fill="#343836" d="M2744.62,3240.183c5.023-62.694,65.231-287.939,65.231-287.939l79.883-5.857
							c0,0,0.745,4.997,1.807,13.602c25.376-17.558,88.701-53.774,114.077,1.752c32.092,70.225-25.807,279.719-7.006,364.954
							c18.814,85.343-5.675,298.531-10.698,314.234c-4.999,15.676-54.554,5.629-54.554,5.629s-27.566-214.465-32.503-297.256
							c-2.282-37.506-10.921-196.504-11.123-195.961c-19.499,74.309-57.313,173.354-57.313,173.354
							c15.043,66.521-23.832,257.17-15.062,306.08c8.801,48.911-61.43,16.953-61.43,16.953S2739.648,3302.89,2744.62,3240.183z"></path><linearGradient id="g" x1="5791.317" x2="5879.866" y1="2948.499" y2="2948.499" gradientTransform="matrix(-1 0 0 1 8787.352 0)" gradientUnits="userSpaceOnUse"><stop offset="0" stop-color="#045f80"></stop><stop offset="1" stop-color="#1c4f76"></stop></linearGradient><path fill="url(#g)" d="M2907.485,2949.947l49.604-0.276c0,0,0.397,5.588,0.929,15.287
							c9.261-5.602,22.931-12.842,38.017-18.202C2972.425,2920.052,2933.495,2935.008,2907.485,2949.947z"></path><linearGradient id="h" x1="5897.119" x2="6043.701" y1="3298.127" y2="3298.127" gradientTransform="matrix(-1 0 0 1 8787.352 0)" gradientUnits="userSpaceOnUse"><stop offset="0" stop-color="#045f80"></stop><stop offset="1" stop-color="#1c4f76"></stop></linearGradient><path fill="url(#h)" d="M2755.971,3649.621c0,0,0.256,0.162,0.754,0.281
							c2.961-114.608,9.456-334.586,16.978-385.283C2784.021,3195.45,2868,2950.02,2868,2950.02l22.232-0.073
							c-0.384-2.331-0.498-3.594-0.498-3.594l-79.948,5.891c0,0-60.075,225.245-65.207,287.871
							C2739.648,3302.93,2755.971,3649.621,2755.971,3649.621z" opacity=".3"></path><linearGradient id="i" x1="5879.866" x2="5897.119" y1="2954.968" y2="2954.968" gradientTransform="matrix(-1 0 0 1 8787.352 0)" gradientUnits="userSpaceOnUse"><stop offset="0" stop-color="#045f80"></stop><stop offset="1" stop-color="#1c4f76"></stop></linearGradient><path fill="url(#i)" d="M2891.474,2959.989c4.365-3.044,9.834-6.49,16.012-10.042h-17.253
							C2890.64,2952.344,2890.978,2955.689,2891.474,2959.989z"></path></g><path fill="#5d5d5d" d="M3014.866,3027.544c0,0-4.561,9.149-8.563,17.827
						c-3.942,8.624-50.033,26.437-62.379,19.941c-12.353-6.427-7.92-25.362-7.92-25.362L3014.866,3027.544z" opacity=".4"></path><path fill="#f9c886" d="M2985.221,2622.862c0,0-35.056,62.667,11.013,200.964
						c46.14,138.324,12.943,203.167,12.943,203.167s-95.879,35.626-207.357,0c0,0-10.202-236.616-10.202-304.684
						c0-68.107,25.764-99.246,74.655-99.448C2941.87,2622.715,2985.221,2622.862,2985.221,2622.862z"></path><path fill="#f9c886" d="M2863.479,2627.994h5.399c0,0-20.265,59.081-25.148,80.399
						c-4.908,21.332,23.046,277.454,23.046,277.454h-24.092c0,0-31.932-200.816-29.534-240.741
						C2815.481,2705.048,2863.479,2627.994,2863.479,2627.994z" opacity=".5"></path><path fill="#ffc4bd" d="M2879.216,2624.052l3.097-28.526l39.716-8.947l4.022,37.473
						C2926.051,2624.052,2892.918,2637.102,2879.216,2624.052z"></path><path fill="#5d5d5d" d="M2825.543,3027.544l7.039,10.21l7.014,1.054c0,0,6.218,26.968-6.839,23.046
						c-16.35-4.889-44.049-19.479-44.049-19.479L2825.543,3027.544z" opacity=".4"></path><path fill="#fed948" d="M2985.221,2635.141l2.626-14.683c0,0-51.929-3.533-54.555-4.983
						c-2.618-1.464-20.057,12.453-20.057,74.427c0,61.935,34.305,339.268,30.689,363.018c-3.619,23.771,70.941-15.844,70.941-15.844
						s28.393-88.803,0-172.977C2986.51,2779.94,2985.221,2635.141,2985.221,2635.141z"></path><path fill="#e2eeee" d="M2924.837,2609.993c0,0,15.696-2.216,14.064,5.978c-1.627,8.248-10.35,23.286-10.35,23.286
						l-15.504-10.108L2924.837,2609.993z"></path><path fill="#fed948" d="M2867.609,2614.91c0,0-42.066-1.747-58.779,20.634c-12.21,16.301-23.313,43.631-21.506,112.156
						c5.702,220.415-14.32,279.845,17.141,292.251c9.755,3.889,39.266,15.152,39.266,15.152s-19.181-236.059-13.259-309.043
						C2833.261,2712.76,2867.609,2614.91,2867.609,2614.91z"></path><path fill="#e2eeee" d="M2880.641,2608.892c0,0-19.539-1.115-17.867,7.08c1.604,8.248,10.338,23.286,10.338,23.286
						l15.514-10.108L2880.641,2608.892z"></path><path fill="#e2eeee" d="M2917.185,2626.234c0,0-13.158,7.846-20.034,6.797c0,0-12.077,55.783-13.481,74.57
						c-1.424,18.813,0,22.125,0,22.125h-3.304c0,0-2.554-14.802,0-34.778c2.633-20.044,12.688-62.345,12.688-62.345l-10.358-4.473
						l1.672-1.895c0,0,15.745,7.537,28.931-0.926C2926.481,2616.857,2917.185,2626.234,2917.185,2626.234z"></path><path fill="#d89e9a" d="M2915.473,2592.463l7.194,1.383c0,0-39.669,20.594-42.026,25.296l1.201-19.855
						L2915.473,2592.463z"></path><g><path fill="#ffc4bd" d="M2866.816,2610.92c19.23-4.205,36.532-13.252,55.851-17.075
							c0.088-6.085,6.125-13.352,9.947-17.289c2.35-2.284,5.131-4.742,8.119-6.85c9.162-8.262,21.011-15.906,21.422-26.773
							c1.464-27.672-22.1-3.318-33.248-4.876c-6.4-0.793-9.029-2.768-12.983-7.993c-4.03-5.394-4.045-13.487-6.403-19.519
							c-6.601-16.712-16.26-21.957-32.319-26.988c-7.233-2.344-19.403-7.455-26.96-6.663c-27.391,3.063-18.653,21.601-21.119,36.922
							c-2.537,14.877-9.344,28.62-11.989,43.604C2811.163,2592.234,2826.161,2619.551,2866.816,2610.92z"></path><path fill="#313b6b" d="M2825.341,2503.829c1.089-8.987,4.117-16.315,16.375-18.995
							c15.719-3.465,40.979,7.617,53.896,16.658c8.463,5.878,6.623,11.365,11.238,20.016c4.498,8.302,4.821,17.759,24.811,18.915
							c3.555,0.194,10.022-5.683,13.441-6.737c10.155-3.124,10.946-5.891,13.77,6.93c3.188,14.475-11.669,22.535-10.426,23.65
							c28.633-21.77,19.654-44.518,7.079-71.534c-14.024-30.076-11.646-23.293-37.203-29.352c-5.342-1.316-9.523-2.794-14.475-5.01
							c-13.842-6.112-26.646-20.057-41.818-22.273c-20.788-3.123-13.662,3.016-18.813,14.441
							C2834.589,2469.721,2804.218,2483.101,2825.341,2503.829z"></path></g><path fill="#ffc4bd" d="M3025.359,2656.775c0,0-30.91-39.796-39.756,0c-8.821,39.702,39.756,200.917,39.756,200.917
						l12.265,182.473l27.523-0.37c0,0,7.645-151.475,5.199-189.572C3067.882,2812.153,3025.359,2656.775,3025.359,2656.775z"></path><path fill="#ffc4bd" d="M3066.209,3032.428c0,0-3.304,16.368,0,19.713c3.372,3.345,13.441,36.137,3.735,50.524
						c-9.732,14.359-42.47,2.994-41.168-5.052c1.336-7.993-0.021-23.402-0.021-23.402s-0.678-0.336-4.317,0
						c-3.667,0.336,0.355-10.706,2.849-15.73c2.485-5.011,11.714-12.479,10.585-23.804
						C3036.812,3023.393,3066.209,3032.428,3066.209,3032.428z"></path><path fill="#113a5a" d="M3010.233,2826.789l63.82-5.79c0,0-30.5-172.882-51.087-185.536
						c-20.561-12.601-41.951-16.321-41.951-16.321S2978.617,2772.336,3010.233,2826.789z"></path><g><linearGradient id="j" x1="5561.114" x2="4369.084" y1="3455.444" y2="3708.448" gradientTransform="matrix(-1 0 0 1 8030.137 0)" gradientUnits="userSpaceOnUse"><stop offset=".144" stop-color="#3e4849"></stop><stop offset="1" stop-color="#603913"></stop></linearGradient><path fill="url(#j)" d="M3176.331,3442.678h-65.428c0.061-0.832,0.201-1.733,0.201-2.579
							c0-26.344-33.384-47.662-74.521-47.662c-41.188,0-74.428,21.319-74.428,47.662c0,0.846,0.112,1.747,0.195,2.579h-83.289
							c-22.983,0-41.528,18.552-41.528,41.495v201.926c0,22.897,18.545,41.476,41.528,41.476h297.27
							c22.891,0,41.523-18.578,41.523-41.476v-201.926C3217.854,3461.23,3199.222,3442.678,3176.331,3442.678z M2978.729,3440.099
							c0-20.526,25.895-37.069,57.854-37.069c32.044,0,57.898,16.543,57.898,37.069c0,0.846-0.115,1.747-0.23,2.579h-115.326
							C2978.845,3441.846,2978.729,3440.945,2978.729,3440.099z"></path><polygon fill="#fed948" points="2837.533 3509.094 2926.709 3509.094 2926.709 3477.283 2952.986 3477.283 2952.986 3509.094 3102.333 3509.094 3102.333 3477.283 3128.608 3477.283 3128.608 3509.094 3217.854 3509.094 3217.854 3522.863 3128.608 3522.863 3128.608 3553.827 3102.333 3553.827 3102.333 3522.863 2952.986 3522.863 2952.986 3553.827 2926.709 3553.827 2926.709 3522.863 2837.533 3522.863"></polygon></g></g><g><g><path fill="#eae0b7" d="M2321.218,2940.805c9.404,4.486,17.659,7.631,23.006,9.819c2.256,0.779,4.11,1.196,5.694,1.196
							c16.53,0.987,11.755-27.714,11.755-27.714s-4.386-4.534-10.788-11.002c-6.286-6.272-14.065-14.481-22.185-22.797
							c-13.204-13.284-26.122-27-30.145-31.957c-5.159-6.045,0.336-26.928,6.575-45.244l-0.2,0.087
							c-2.553-0.329-34.672-13.413-44.982-17.968c-9.276,28.903-18.305,63.313-16.605,80.387
							C2245.581,2900.747,2290.045,2926.471,2321.218,2940.805z"></path><g><path fill="#ffdcb0" d="M2406.91,2925.283c5.159,0.033,13.817-1.297,19.499-9.921
								c1.645-2.498-0.794-5.467-3.688-4.849c-4.756,1.156-11.035-4.151-22.119,1.666c-21.965,11.539-44.356,10.895-44.356,10.895
								l-6.376,24.582c0,0,18.861,22.34,34.035,26.276c14.319,3.641,48.4,19.257,73.238-4.884c2.646-2.605,2.514-6.817-0.314-9.127
								c-8.456-7.093-26.17-21.199-38.675-25.646c-6.269-2.323-10.022-4.19-12.285-5.628
								C2404.35,2927.68,2405.103,2925.283,2406.91,2925.283z"></path></g><g><g><g><polygon fill="#fff" points="2475.869 2886.427 2323.791 2977.095 2388.612 3086.034 2549.87 2989.945 2505.175 2914.906"></polygon></g><g><polygon fill="#fff" points="2475.869 2886.427 2474.943 2886.97 2472.681 2906.845 2506.699 2917.498 2505.175 2914.906"></polygon><linearGradient id="k" x1="5613.497" x2="5648.866" y1="3490.83" y2="3490.83" gradientTransform="scale(-1 1) rotate(-20.911 -22.527 25200.374)" gradientUnits="userSpaceOnUse"><stop offset=".202" stop-color="#ff6363"></stop><stop offset="1" stop-color="#ef4136"></stop></linearGradient><path fill="url(#k)" d="M2476.072,2888.361l-1.963,17.597l29.554,9.283L2476.072,2888.361z"></path></g></g><g><g><path fill="#595a5c" d="M2515.149 2962.016l13.757 23.052c.248.51.946.645 1.422.363l0 0c.471-.27.658-.954.391-1.457l-13.755-23.059c-.277-.483-.928-.645-1.443-.375l0 0C2515.015 2960.861 2514.842 2961.533 2515.149 2962.016zM2509.655 2965.267l13.85 23.012c.195.497.901.658 1.396.41l0 0c.451-.302.658-.96.315-1.445l-13.727-23.078c-.271-.51-.909-.673-1.432-.343l0 0C2509.588 2964.085 2509.407 2964.743 2509.655 2965.267zM2504.296 2968.506l13.707 23.052c.271.497.949.645 1.42.375l0 0c.522-.335.658-.953.367-1.43l-13.729-23.125c-.275-.471-.946-.618-1.449-.336l0 0C2504.094 2967.35 2503.958 2967.974 2504.296 2968.506z"></path></g><g><path fill="#595a5c" d="M2361.069 2977.183l13.814 23.078c.275.497.953.632 1.424.363l0 0c.519-.323.727-.968.315-1.492l-13.749-23.011c-.268-.484-.879-.672-1.43-.416l0 0C2361.002 2976.054 2360.866 2976.712 2361.069 2977.183zM2355.588 2980.433l13.776 23.053c.32.537.974.658 1.47.356l0 0c.565-.289.698-.934.39-1.444l-13.709-23.038c-.362-.524-.993-.7-1.443-.383l0 0C2355.521 2979.264 2355.372 2979.924 2355.588 2980.433zM2350.226 2983.711l13.737 23.025c.268.524.901.671 1.444.349l0 0c.479-.289.658-.948.391-1.41l-13.757-23.071c-.315-.477-.927-.713-1.444-.329l0 0C2350.078 2982.542 2349.918 2983.174 2350.226 2983.711z"></path></g><g><path fill="#595a5c" d="M2456.937 2920.078l47.405 79.606c.315.497.996.617 1.519.376l0 0c.443-.281.631-.968.355-1.479l-47.42-79.586c-.295-.517-.974-.677-1.449-.369l0 0C2456.781 2918.949 2456.688 2919.573 2456.937 2920.078zM2451.51 2923.349l47.452 79.572c.288.483.927.672 1.425.349l0 0c.516-.281.631-.966.431-1.437l-47.503-79.566c-.308-.523-.946-.699-1.442-.389l0 0C2451.374 2922.186 2451.194 2922.791 2451.51 2923.349zM2446.035 2926.565l47.426 79.594c.315.49.954.645 1.479.349l0 0c.516-.309.65-.953.355-1.424l-47.408-79.592c-.308-.498-.898-.686-1.465-.377l0 0C2445.968 2925.444 2445.765 2926.109 2446.035 2926.565z"></path></g><g><path fill="#595a5c" d="M2435.027 2933.162l47.465 79.539c.296.518.954.686 1.452.37l0 0c.476-.329.631-.927.315-1.444l-47.386-79.58c-.29-.469-.941-.677-1.491-.362l0 0C2434.912 2931.994 2434.771 2932.644 2435.027 2933.162zM2429.598 2936.378l47.4 79.554c.315.53.974.678 1.432.383l0 0c.516-.296.746-.974.403-1.438l-47.455-79.586c-.24-.476-.831-.651-1.396-.362l0 0C2429.525 2935.244 2429.343 2935.888 2429.598 2936.378zM2424.144 2939.583l47.476 79.647c.248.496.879.618 1.356.349l0 0c.496-.255.698-.979.41-1.437l-47.387-79.621c-.275-.469-.947-.685-1.445-.363l0 0C2424.051 2938.467 2423.849 2939.099 2424.144 2939.583z"></path></g><g><path fill="#595a5c" d="M2413.13 2946.166l47.406 79.566c.295.524.993.692 1.491.417l0 0c.543-.295.658-1.008.296-1.492l-47.36-79.566c-.248-.511-.954-.672-1.404-.355l0 0C2412.995 2945.016 2412.835 2945.681 2413.13 2946.166zM2407.701 2949.436l47.36 79.573c.363.484.974.644 1.56.389l0 0c.476-.321.591-.96.315-1.471l-47.4-79.586c-.268-.523-.926-.632-1.452-.35l0 0C2407.541 2948.247 2407.405 2948.932 2407.701 2949.436zM2402.274 2952.721l47.381 79.525c.362.477.945.645 1.472.403l0 0c.476-.31.658-1.014.383-1.492l-47.428-79.579c-.315-.489-.966-.671-1.465-.355l0 0C2402.142 2951.525 2401.932 2952.183 2402.274 2952.721z"></path></g><g><path fill="#595a5c" d="M2391.238 2959.262l47.381 79.527c.315.524.993.685 1.472.416l0 0c.476-.328.698-.973.383-1.45l-47.428-79.606c-.288-.478-.879-.645-1.47-.376l0 0C2391.126 2958.053 2390.964 2958.738 2391.238 2959.262zM2385.765 2962.447l47.428 79.593c.315.51.974.679 1.424.389l0 0c.543-.296.751-.981.363-1.465l-47.313-79.566c-.323-.518-1.021-.666-1.5-.349l0 0C2385.699 2961.332 2385.517 2961.95 2385.765 2962.447zM2380.358 2965.745l47.475 79.533c.221.509.898.671 1.329.396l0 0c.544-.302.726-.947.411-1.451l-47.469-79.545c-.207-.551-.86-.727-1.384-.377l0 0C2380.205 2964.583 2380.083 2965.24 2380.358 2965.745z"></path></g></g><path fill="#595a5c" d="M2375.475,2991.368c-6.421,3.722-8.483,11.969-4.641,18.344
								c3.734,6.362,11.901,8.471,18.364,4.696c6.333-3.816,8.396-12.063,4.641-18.411
								C2390.037,2989.616,2381.81,2987.527,2375.475,2991.368z"></path></g></g><polygon fill="#eae0b7" points="2237.554 3638.673 2242.417 3690.687 2288.488 3690.687 2285.324 3629.618"></polygon><path fill="#343736" d="M2314.455,3712.179l-22.55-34.885h-58.422c0,0-4.317,25.759,5.885,43.209
						c10.242,17.362,34.893,16.839,34.893,16.839L2314.455,3712.179z"></path><path fill="#404443" d="M2274.261,3737.341c0,0,1.062-33.759,40.194-33.759c39.103,0,32.702,33.759,32.702,33.759
						H2274.261z"></path><polygon fill="#eae0b7" points="2006.144 3638.673 2010.912 3690.687 2057.049 3690.687 2053.792 3629.618"></polygon><path fill="#343736" d="M2082.97,3712.179l-22.475-34.885h-58.449c0,0-4.319,25.759,5.857,43.209
						c10.155,17.362,34.9,16.839,34.9,16.839L2082.97,3712.179z"></path><path fill="#404443" d="M2042.804,3737.341c0,0,1.062-33.759,40.166-33.759c39.171,0,32.703,33.759,32.703,33.759
						H2042.804z"></path><path fill="#dbcd93" d="M2277.137,3062.365l12.62,587.767c0,0-35.941,23.884-57.18,10.007
						c-21.165-13.877-56.648-440.093-56.648-440.093l-109.764,427.479c0,0-40.777,37.547-61.971,9.779
						c-10.69-13.998,15.065-194.61,27.391-353.245c12.029-155.29,9.955-288.431,65.953-324.378
						C2139.129,2952.989,2277.137,3062.365,2277.137,3062.365z"></path><path fill="#eae0b7" d="M2345.936,2642.126l0.906-32.644l-47.903-14.394l-13.682,32.718
						C2285.257,2627.806,2285.116,2660.758,2345.936,2642.126z"></path><path fill="#ff6363" d="M2363.468,2831.658c-6.651,34.094-27.709,133.461-50.867,197.674
						c-9.64,26.921-19.747,47.688-29.043,54.876c-9.364,6.917-25.874,8.53-45.573,6.139
						c-49.013-6.139-139.069-50.892-164.358-83.926c-34.102-43.679,130.001-392.142,129.195-399.597
						c30.375-11.996,61.828-15.717,87.387-2.659c0,0,9.564,25.563,29.016,29.567c7.757,1.598,16.805,0,27.188-7.469
						c0.794-0.255,1.357-0.793,2.123-1.585c0,0,29.836,45.823,33.57,64.736C2389.562,2725.104,2372.781,2783.715,2363.468,2831.658z
						"></path><linearGradient id="l" x1="2068.962" x2="2332.736" y1="2843.666" y2="2843.666" gradientUnits="userSpaceOnUse"><stop offset=".202" stop-color="#ff6363"></stop><stop offset="1" stop-color="#ef4136"></stop></linearGradient><path fill="url(#l)" d="M2328.843,2817.271c-1.069,36.23-5.347,133.206-16.242,212.061
						c-9.64,26.921-19.747,47.688-29.043,54.876c-9.364,6.917-25.874,8.53-45.573,6.139
						c-49.013-6.139-139.069-50.892-164.358-83.926c-34.102-43.679,130.001-392.142,129.195-399.597
						c30.375-11.996,61.828-15.717,87.387-2.659c0,0,9.564,25.563,29.016,29.567c1.584,2.66,2.969,5.319,3.762,7.468
						C2339.237,2683.011,2330.688,2757.332,2328.843,2817.271z" opacity=".4"></path><path fill="#dbcd93" d="M2346.909,2618.121l-0.41,5.125c0,0-17.912,6.482-27.391,1.202
						c-9.517-5.292-24.966-17.712-24.966-17.712l3.547-8.765L2346.909,2618.121z"></path><path fill="#213347" d="M2379.337,2495.689c0,0,20.492,20.983,36.715,14.4c16.092-6.561,27.861-34.014,27.861-34.014
						s-6.743,3.641-17.559,2.365c0,0,6.993,3.466,12.627-11.258c5.678-14.723-21.438,11.056-32.978,10.505
						c0,0,17.142-7.638,17.845-16.323c0.658-8.664-12.055,4.46-18.518,2.6c-6.448-1.861-13.414-13.265-40.124-16.329
						c-26.692-3.063-51.027,30.978-64.214,15.032c-13.091-15.958-14.084,22.977-16.146,36.425
						c-2.056,13.452-21.211,77.988,6.783,72.547c27.956-5.454,50.712-54.957,50.712-54.957L2379.337,2495.689z"></path><path fill="#eae0b7" d="M2337.948,2622.016c0,0,32.303,11.216,47.072-33.154c14.696-44.277,33.469-64.057,30.775-83.57
						c-2.801-19.478-25.826-27.108-58.483-22.561c-32.587,4.554-52.401,14.757-51.388,30.89c0,0-33.899,6.085-10.521,32.482
						c0,0-13.854,53.962,9.727,66.375C2328.774,2624.917,2337.948,2622.016,2337.948,2622.016z"></path><path fill="#213347" d="M2421.365,2495.701c0,0-6.228,15.031-26.915,5.749c-20.652-9.302-16.966-8.556-39.333-10.961
						c-22.34-2.459-30.392,25.805-37.318,43.376c-7.011,17.638,3.104-19.337-11.646-24.705c-14.723-5.346,0.698-20.016,0.698-20.016
						l39.601-19.142C2346.451,2470.003,2388.903,2462.467,2421.365,2495.701z"></path><path fill="#231f20" d="M2213.515,2649.152l-0.751-27.686c0,0,99.581,93.133,103.275,119.745
						c3.707,26.638,52.76,62.492,52.76,62.492l-117.696-42.503L2213.515,2649.152z" opacity=".1"></path><path fill="#eae0b7" d="M2261.353,2724.554c0,0,105.89,79.069,137.705,100.549
						c41.596,28.021,115.709,42.134,122.836,36.741c17.256-13.192,28.547-19.6,31.775-11.768
						c2.714,6.649-18.342,22.152-18.342,22.152s34.337,10.827,54.754,41.24c0,0-1.089,17.45-15.852,27.323
						c-7.717,5.145-18.53,5.232-33.611-6.596c-54.459-42.792-101.884-35.773-152.776-56.769
						c-33.826-13.931-154.714-99.677-154.714-99.677L2261.353,2724.554z"></path><linearGradient id="m" x1="6072.557" x2="6185.398" y1="1364.243" y2="1364.243" gradientTransform="scale(-1 1) rotate(35.492 -149.91 -10989.392)" gradientUnits="userSpaceOnUse"><stop offset=".202" stop-color="#ff6363"></stop><stop offset="1" stop-color="#ef4136"></stop></linearGradient><path fill="url(#m)" d="M2202.821,2606.89c0,0,69.473,101.153,82.436,126.254
						c11.512,22.152-6.508,57.555-28.337,69.679c-17.196,9.504-89.905-60.773-89.905-60.773s-46.613-24.75-21.285-80.755
						C2173.961,2598.883,2202.821,2606.89,2202.821,2606.89z"></path></g></g><g><linearGradient id="n" x1="6111.215" x2="6076.266" y1="2729.577" y2="2673.303" gradientTransform="matrix(-1 0 0 1 7906.174 0)" gradientUnits="userSpaceOnUse"><stop offset=".175" stop-color="#e3b433"></stop><stop offset="1" stop-color="#f9ed32"></stop></linearGradient><path fill="url(#n)" d="M1859.678,2680.411c0,0-5.319-11.23,3.526-19.505c8.914-8.336-2.94-26.465-33.16-18.256
					c-30.191,8.18-22.795,17.845-22.795,17.845S1847.373,2685.02,1859.678,2680.411z"></path><g><path fill="#1c244d" d="M1878.989,2541.194c-26.889,12.936-53.741,25.906-80.634,38.89
						c-8.793,4.252-19.036,10.673-18.585,20.465c0.363,5.972,4.613,10.767,7.622,15.933c6.786,11.627,6.966,26.799,0.338,38.528
						c-6.376,11.344-17.982,18.739-25.646,29.27c-15.246,20.849-12.505,49.281-9.859,74.906
						c3.614,34.934,5.904,70.029,6.783,105.103c0.61,26.344-1.72,57.106-23.502,71.863c-23.133,15.656-57.032,2.518-72.21-20.936
						c-15.221-23.402-16.06-53.223-13.824-81.045c1.412-17.751,3.774-36.256-2.646-52.873
						c-6.488-16.766-21.601-30.367-23.065-48.266c-1.604-19.332,13.051-35.586,25.604-50.282
						c19.331-22.689,36.097-47.809,47.898-75.214c11.854-27.471-1.759-71.284,9.657-98.965
						c11.399-27.638,30.898-53.082,57.155-67.396c26.302-14.252,81.171,0.82,100.24,23.926
						c16.279,19.774,15.832,48.051,14.54,73.696"></path></g><g><path fill="#eae0b7" d="M1646.69,3606.97c-6.18,9.684-12.372,19.383-18.59,29.083
						c-4.541,7.105-10.425,15.038-18.908,15.341c-2.466,0.107-5.019-0.471-7.302,0.443c-5.198,2.015-5.064,9.201-3.982,14.656
						c5.292,27.768,11.579,57.415,31.869,77.027c3.574,3.44,8.21,6.649,13.003,5.603c4.771-1.035,7.168-8.894,2.601-10.747
						c1.719-1.048,4.157-0.698,5.446,0.833c4.999-3.09,4.596-10.451,2.989-16.066c-3.056-10.371-8.348-19.956-11.647-30.28
						c-3.229-10.276-4.183-22.056,1.204-31.407c4.386-7.602,12.21-12.445,18.067-18.98c5.789-6.475,9.517-16.846,4.109-23.697
						c-5.306-6.789-15.581-5.978-24.019-4.473"></path></g><path fill="#343736" d="M1642.889,3668.683l-18.087-27.809c0,0-31.984,12.205-37.546,22.643
					c-3.978,7.382,21.781,57.207,34.947,83.443c5.427,10.86,49.756,5.938,49.756,5.938s1.304,1.504,7.887-8.302
					c6.493-9.806-28.882-16-32.905-42.987C1644.455,3684.548,1642.889,3668.683,1642.889,3668.683z"></path><g><path fill="#eae0b7" d="M1870.283,3638.324c0,11.525,0,22.998,0,34.522c0,8.411-0.746,18.271-7.642,23.065
						c-2.083,1.425-4.528,2.324-6.02,4.313c-3.257,4.514,0.726,10.505,4.596,14.509c19.416,20.566,40.682,42.148,68.388,47.755
						c4.776,0.975,10.405,1.224,13.912-2.243c3.505-3.492,1.222-11.324-3.669-10.478c0.928-1.82,3.191-2.835,5.091-2.251
						c2.553-5.272-1.72-11.283-6.152-15.159c-8.072-7.093-17.752-12.298-26.032-19.21c-8.295-6.944-15.449-16.361-15.947-27.149
						c-0.402-8.739,3.575-17.047,4.957-25.645c1.424-8.624-0.994-19.385-9.249-22.26c-8.147-2.862-16.327,3.358-22.641,9.128"></path></g><g><path fill="#ececec" d="M1776.484,2717.689c0.486,28.251,2.398,56.863-6.776,84.026
						c-7.174,21.185-23.549,39.568-35.398,59.429c-17.436,29.258-25.193,62.036-22.232,94.276c0.653,7.113,1.922,14.334,6.24,20.554
						c6.153,8.744,17.619,14.307,28.93,18.82c50.685,20.203,109.173,27.935,165.399,21.896c5.99-0.637,12.438-1.651,16.603-5.077
						c5.374-4.461,5.239-11.392,4.474-17.544c-3.009-24.382-10.546-48.468-22.232-71.211c-8.303-16.18-18.82-31.863-23.361-48.978
						c-4.5-17.087-1.975-36.552,13.004-49.381c4.34-3.735,9.563-6.771,13.768-10.586c12.106-11.028,13.893-27.377,9.097-41.469
						c-4.796-14.118-15.154-26.544-25.471-38.742c-21.031-24.952-47.448-35.961-68.484-60.967
						C1830.044,2672.735,1775.175,2640.763,1776.484,2717.689z"></path></g><g><path fill="#202953" d="M1857.958,3059.752c-5.479,70.411-35.1,136.356-48.896,205.552
						c-6.113,30.749-9.074,62.076-15.179,92.772c-13.885,70.041-43.538,135.61-72.984,200.426
						c-12.412,27.397-25.471,55.629-47.636,75.644c-8.478,7.736-22.179,13.849-30.527,5.931c-4.796-4.603-5.522-12.178-4.864-18.935
						c2.714-28.668,22.796-51.894,34.692-78.009c16.212-35.397,17.006-75.777,17.867-114.868
						c2.335-106.34,6.855-212.639,13.594-318.843c2.035-32.362,4.573-65.731,19.116-94.546
						c14.628-28.814,44.504-52.107,76.06-48.278c18.047,2.188,33.966,12.66,50.951,19.304c30.4,11.941,52.808,15.931,82.824,3.048
						c8.055,113.399,11.802,222.728,3.004,336.012c-2.011,26.034-4.091,51.98-6.1,77.987c-5.722,73.79-11.472,147.56-17.214,221.35
						c-1.491,19.022-8.055,43.43-26.74,44.344c-17.428,0.833-26.907-20.405-30.211-37.922
						c-14.037-74.926-3.822-151.972,0.773-228.101c4.585-76.127,2.482-156.142-33.203-223.116"></path></g><g><linearGradient id="o" x1="6076.106" x2="6299.709" y1="2915.646" y2="2915.646" gradientTransform="matrix(-1 0 0 1 7906.174 0)" gradientUnits="userSpaceOnUse"><stop offset="0" stop-color="#e9c433"></stop><stop offset="1" stop-color="#f9ed32"></stop></linearGradient><path fill="url(#o)" d="M1753.944,2668.429c-4.125,0.242-7.584-0.618-10.425-2.076
						c-0.551,0.363-1.067,0.692-1.584,1.135c-5.064,4.01-9.928,8.451-12.561,14.314c-3.479,7.724-2.525,16.556-1.72,24.939
						c2.996,28.144,4.823,56.394,5.549,84.637c0.671,26.094,0.383,52.37-4.596,78.001c-3.89,19.868-10.518,39.052-17.168,58.235
						c-22.272,64.318-45.498,130.412-90.393,181.579c-8.666,9.915-18.78,23.025-12.763,34.726
						c4.098,7.926,13.825,10.733,22.462,12.816c35.714,8.409,76.967,15.743,105.829-6.839c23.361-18.269,30.392-50.475,31.185-80.09
						c0.811-29.641-2.868-59.953,5.427-88.406c4.568-15.704,12.715-30.132,17.664-45.7c4.748-14.992,6.63-30.723,8.57-46.359
						c6.919-54.862,18.82-82.602,30.515-136.632c1.672-7.723-13.259-46.198-8.578-52.538c0.861-1.263,1.855-2.323,2.856-3.317
						C1800.778,2676.408,1785.31,2666.763,1753.944,2668.429z"></path></g><polygon fill="#202953" points="1686.817 3064.541 1675.869 3081.326 1746.502 3102.348 1751.499 3083.408"></polygon><path fill="#343736" d="M1902.721,3687.14l-38.112-5.608c0,0-13.146,20.559-12.212,32.354
					c0.578,8.342,44.076,35.397,69.337,50.455c10.357,6.181,27.554,0.242,27.554,0.242s1.968,0.551,2.143-11.256
					c0.255-11.809-18.298-31.966-33.288-40.611C1903.144,3704.128,1902.721,3687.14,1902.721,3687.14z"></path><g><path fill="#e8e3ca" d="M1787.823,2633.247c-2.989,9.524-2.35,20.957,4.46,28.291
						c6.863,7.321,32.563,28.002,37.761,19.453c1.585-2.58-9.564-25.853-8.227-28.574c8.415-16.012,37.091-12.399,43.941-29.123
						c1.174-2.781,2.035-5.817,1.88-8.799c-1.537-30.535,9.927-24.517,4.883-43.618c-1.719-6.422,1.473-13.352,0.115-19.868
						c-1.719-8.504-6.878-15.852-11.924-22.891c-6.193-8.739-12.37-17.438-18.591-26.176c-1.148-1.658-2.397-3.365-4.232-4.305
						c-4.969-2.486-10.465,2.237-13.634,6.797c-8.41,12.265-13.366,26.8-22.75,38.325c-9.43,11.581-25.892,19.728-39.218,13.125
						c-4.931-2.472-9.927-6.905-15.201-5.279c-4.062,1.249-6.307,6.018-5.945,10.25c0.315,4.258,2.673,8.086,5.179,11.552
						c8.147,11.218,18.881,20.272,28.09,30.702"></path></g><linearGradient id="p" x1="5486.872" x2="5509.258" y1="580.486" y2="727.012" gradientTransform="scale(-1 1) rotate(63.276 7.01 -4280.75)" gradientUnits="userSpaceOnUse"><stop offset="0" stop-color="#e9c433"></stop><stop offset="1" stop-color="#f9ed32"></stop></linearGradient><path fill="url(#p)" d="M1838.116,2705.504c0,0,103.702,144.947,116.342,154.499
					c12.648,9.498,131.271,44.055,131.271,44.055l-3.819,43.464c0,0-109.061-6.079-153.888-35.814
					c-44.867-29.735-199.701-190.701-180.956-225.144c18.793-34.483,89.179,17.987,89.179,17.987L1838.116,2705.504z"></path><linearGradient id="q" x1="6138.443" x2="6123.04" y1="2731.438" y2="2662.717" gradientTransform="matrix(-1 0 0 1 7906.174 0)" gradientUnits="userSpaceOnUse"><stop offset=".175" stop-color="#e3b433"></stop><stop offset="1" stop-color="#f9ed32"></stop></linearGradient><path fill="url(#q)" d="M1815.254,2689.317c0,0-0.806-25.643,2.761-33.18
					c3.555-7.509-56.494-20.916-66.744-8.275c-10.27,12.614-3.727,24.839-3.727,24.839L1815.254,2689.317z"></path><g><path fill="#e8e3ca" d="M2148.646,2902.25c5.426-1.201,14.185-4.675,18.102-14.917c1.082-3.042-2.17-5.655-5.023-4.305
						c-4.655,2.35-12.623-1.713-22.805,7.019c-20.143,17.282-43.759,21.923-43.759,21.923l-0.794,27.176
						c0,0,25.041,18.894,41.771,19.385c15.839,0.463,55.24,8.718,75.409-22.494c2.13-3.291,1.041-7.69-2.49-9.43
						c-10.473-5.428-32.409-15.906-46.522-17.679c-7.098-0.866-11.443-1.948-14.132-2.881
						C2146.591,2905.314,2146.723,2902.701,2148.646,2902.25z"></path><polygon fill="#2b3990" points="2085.729 2904.058 2097.738 2909.949 2095.14 2941.637 2081.909 2947.522"></polygon></g></g></g></g><path fill="#18445f" d="M3063.656,2809.057c0,0-12.034,8.08-22.069,11.942c-10.05,3.848-34.404,0-34.404,0l7.684,18.625
		c0,0-0.878,15.395,5.865,13.945c6.743-1.452,57.763-7.241,57.763-7.241s7.597-40.435,1.808-39.401
		c-5.79,1.042-7.604,4.662-7.604,4.662L3063.656,2809.057z"></path></g></svg>